<svg id="new_coll_bg" xmlns="http://www.w3.org/2000/svg" width="1920" height="603" viewBox="0 0 1920 603">
  <rect id="Rectangle_2" data-name="Rectangle 2" width="1920" height="603" rx="3" fill="#53afee"/>
  <circle id="Ellipse_1" data-name="Ellipse 1" cx="26" cy="26" r="26" transform="translate(133 61)" fill="#54abe6"/>
  <circle id="Ellipse_2" data-name="Ellipse 2" cx="15" cy="15" r="15" transform="translate(230 167)" fill="#54abe6"/>
  <circle id="Ellipse_3" data-name="Ellipse 3" cx="23.5" cy="23.5" r="23.5" transform="translate(282 50)" fill="#54abe6"/>
  <circle id="Ellipse_4" data-name="Ellipse 4" cx="13" cy="13" r="13" transform="translate(96 191)" fill="#54abe6"/>
  <circle id="Ellipse_5" data-name="Ellipse 5" cx="19.5" cy="19.5" r="19.5" transform="translate(221 349)" fill="#54abe6"/>
  <circle id="Ellipse_6" data-name="Ellipse 6" cx="13.5" cy="13.5" r="13.5" transform="translate(398 211)" fill="#54abe6"/>
  <circle id="Ellipse_7" data-name="Ellipse 7" cx="14.5" cy="14.5" r="14.5" transform="translate(59 349)" fill="#54abe6"/>
  <circle id="Ellipse_8" data-name="Ellipse 8" cx="21.5" cy="21.5" r="21.5" transform="translate(717 182)" fill="#54abe6"/>
  <circle id="Ellipse_9" data-name="Ellipse 9" cx="17.5" cy="17.5" r="17.5" transform="translate(452 466)" fill="#54abe6"/>
  <circle id="Ellipse_10" data-name="Ellipse 10" cx="37" cy="37" r="37" transform="translate(501 67)" fill="#54abe6"/>
  <circle id="Ellipse_11" data-name="Ellipse 11" cx="17.5" cy="17.5" r="17.5" transform="translate(655 466)" fill="#54abe6"/>
  <circle id="Ellipse_12" data-name="Ellipse 12" cx="28" cy="28" r="28" transform="translate(185 517)" fill="#54abe6"/>
  <circle id="Ellipse_13" data-name="Ellipse 13" cx="8.5" cy="8.5" r="8.5" transform="translate(564 285)" fill="#54abe6"/>
  <circle id="Ellipse_14" data-name="Ellipse 14" cx="10" cy="10" r="10" transform="translate(398 104)" fill="#54abe6"/>
  <circle id="Ellipse_15" data-name="Ellipse 15" cx="4.5" cy="4.5" r="4.5" transform="translate(359 340)" fill="#54abe6"/>
  <circle id="Ellipse_16" data-name="Ellipse 16" cx="19" cy="19" r="19" transform="translate(690 29)" fill="#54abe6"/>
  <circle id="Ellipse_17" data-name="Ellipse 17" cx="19.5" cy="19.5" r="19.5" transform="translate(960 246)" fill="#54abe6"/>
  <circle id="Ellipse_18" data-name="Ellipse 18" cx="9.5" cy="9.5" r="9.5" transform="translate(690 340)" fill="#54abe6"/>
  <circle id="Ellipse_19" data-name="Ellipse 19" cx="14" cy="14" r="14" transform="translate(923 456)" fill="#54abe6"/>
  <circle id="Ellipse_20" data-name="Ellipse 20" cx="14.5" cy="14.5" r="14.5" transform="translate(1067 359)" fill="#54abe6"/>
  <circle id="Ellipse_21" data-name="Ellipse 21" cx="19" cy="19" r="19" transform="translate(999 29)" fill="#54abe6"/>
  <circle id="Ellipse_22" data-name="Ellipse 22" cx="12" cy="12" r="12" transform="translate(857 350)" fill="#54abe6"/>
  <circle id="Ellipse_23" data-name="Ellipse 23" cx="8.5" cy="8.5" r="8.5" transform="translate(812 540)" fill="#54abe6"/>
  <circle id="Ellipse_24" data-name="Ellipse 24" cx="14.5" cy="14.5" r="14.5" transform="translate(1067 540)" fill="#54abe6"/>
  <circle id="Ellipse_25" data-name="Ellipse 25" cx="10" cy="10" r="10" transform="translate(1115 104)" fill="#54abe6"/>
  <circle id="Ellipse_26" data-name="Ellipse 26" cx="4.5" cy="4.5" r="4.5" transform="translate(937 104)" fill="#54abe6"/>
  <circle id="Ellipse_27" data-name="Ellipse 27" cx="13.5" cy="13.5" r="13.5" transform="translate(425 362)" fill="#54abe6"/>
  <circle id="Ellipse_28" data-name="Ellipse 28" cx="15" cy="15" r="15" transform="translate(329 450)" fill="#54abe6"/>
  <circle id="Ellipse_29" data-name="Ellipse 29" cx="5.5" cy="5.5" r="5.5" transform="translate(19 113)" fill="#54abe6"/>
  <circle id="Ellipse_30" data-name="Ellipse 30" cx="8" cy="8" r="8" transform="translate(59 501)" fill="#54abe6"/>
  <circle id="Ellipse_31" data-name="Ellipse 31" cx="12" cy="12" r="12" transform="translate(610 167)" fill="#54abe6"/>
  <circle id="Ellipse_32" data-name="Ellipse 32" cx="6" cy="6" r="6" transform="translate(869 141)" fill="#54abe6"/>
  <circle id="Ellipse_33" data-name="Ellipse 33" cx="13" cy="13" r="13" transform="translate(1056 217)" fill="#54abe6"/>
  <circle id="Ellipse_34" data-name="Ellipse 34" cx="14" cy="14" r="14" transform="translate(829 29)" fill="#54abe6"/>
  <circle id="Ellipse_35" data-name="Ellipse 35" cx="9" cy="9" r="9" transform="translate(546 388)" fill="#54abe6"/>
  <circle id="Ellipse_36" data-name="Ellipse 36" cx="10" cy="10" r="10" transform="translate(546 549)" fill="#54abe6"/>
  <circle id="Ellipse_37" data-name="Ellipse 37" cx="6.5" cy="6.5" r="6.5" transform="translate(368 527)" fill="#54abe6"/>
  <circle id="Ellipse_38" data-name="Ellipse 38" cx="12" cy="12" r="12" transform="translate(176 254)" fill="#54abe6"/>
  <circle id="Ellipse_39" data-name="Ellipse 39" cx="19" cy="19" r="19" transform="translate(1331 153)" fill="#54abe6"/>
  <circle id="Ellipse_40" data-name="Ellipse 40" cx="13" cy="13" r="13" transform="translate(1185 217)" fill="#54abe6"/>
  <circle id="Ellipse_41" data-name="Ellipse 41" cx="17" cy="17" r="17" transform="translate(1229 16)" fill="#54abe6"/>
  <circle id="Ellipse_42" data-name="Ellipse 42" cx="25.5" cy="25.5" r="25.5" transform="translate(1350 388)" fill="#54abe6"/>
  <circle id="Ellipse_43" data-name="Ellipse 43" cx="17" cy="17" r="17" transform="translate(1297 294)" fill="#54abe6"/>
  <circle id="Ellipse_44" data-name="Ellipse 44" cx="9" cy="9" r="9" transform="translate(1211 406)" fill="#54abe6"/>
  <circle id="Ellipse_45" data-name="Ellipse 45" cx="23" cy="23" r="23" transform="translate(1464 294)" fill="#54abe6"/>
  <circle id="Ellipse_46" data-name="Ellipse 46" cx="14" cy="14" r="14" transform="translate(1246 545)" fill="#54abe6"/>
  <circle id="Ellipse_47" data-name="Ellipse 47" cx="7.5" cy="7.5" r="7.5" transform="translate(1510 167)" fill="#54abe6"/>
  <g id="Ellipse_48" data-name="Ellipse 48" transform="translate(1542 500)" fill="#fff" stroke="#707070" stroke-width="1">
    <circle cx="0.5" cy="0.5" r="0.5" stroke="none"/>
    <circle cx="0.5" cy="0.5" fill="none"/>
  </g>
  <circle id="Ellipse_49" data-name="Ellipse 49" cx="9.5" cy="9.5" r="9.5" transform="translate(1350 57)" fill="#54abe6"/>
  <circle id="Ellipse_50" data-name="Ellipse 50" cx="23.5" cy="23.5" r="23.5" transform="translate(1487 50)" fill="#54abe6"/>
  <circle id="Ellipse_51" data-name="Ellipse 51" cx="13.5" cy="13.5" r="13.5" transform="translate(1425 114)" fill="#54abe6"/>
  <circle id="Ellipse_52" data-name="Ellipse 52" cx="23.5" cy="23.5" r="23.5" transform="translate(1669 359)" fill="#54abe6"/>
  <circle id="Ellipse_53" data-name="Ellipse 53" cx="13.5" cy="13.5" r="13.5" transform="translate(1425 484)" fill="#54abe6"/>
  <circle id="Ellipse_54" data-name="Ellipse 54" cx="23.5" cy="23.5" r="23.5" transform="translate(1543 480)" fill="#54abe6"/>
  <circle id="Ellipse_55" data-name="Ellipse 55" cx="16" cy="16" r="16" transform="translate(1802 527)" fill="#54abe6"/>
  <circle id="Ellipse_56" data-name="Ellipse 56" cx="8" cy="8" r="8" transform="translate(1669 238)" fill="#54abe6"/>
  <circle id="Ellipse_57" data-name="Ellipse 57" cx="16" cy="16" r="16" transform="translate(1802 74)" fill="#54abe6"/>
  <circle id="Ellipse_58" data-name="Ellipse 58" cx="22" cy="22" r="22" transform="translate(1590 43)" fill="#54abe6"/>
  <circle id="Ellipse_59" data-name="Ellipse 59" cx="7.5" cy="7.5" r="7.5" transform="translate(1590 302)" fill="#54abe6"/>
  <circle id="Ellipse_60" data-name="Ellipse 60" cx="21.5" cy="21.5" r="21.5" transform="translate(1802 182)" fill="#54abe6"/>
  <circle id="Ellipse_61" data-name="Ellipse 61" cx="12" cy="12" r="12" transform="translate(1622 167)" fill="#54abe6"/>
  <circle id="Ellipse_62" data-name="Ellipse 62" cx="27.5" cy="27.5" r="27.5" transform="translate(1824 359)" fill="#54abe6"/>
</svg>
